Coordinates
version=1
nRows=16
nColumns=21
inDegrees=yes

Units are S.I. units (second, meters, Newtons, ...)
If the header above contains a line with 'inDegrees', this indicates whether rotational values are in degrees (yes) or radians (no).

endheader
time	sternoclavicular_r2	sternoclavicular_r3	unrotscap_r3	unrotscap_r2	acromioclavicular_r2	acromioclavicular_r3	acromioclavicular_r1	unrothum_r1	unrothum_r3	unrothum_r2	elv_angle	shoulder_elev	shoulder1_r2	shoulder_rot	elbow_flexion	pro_sup	deviation	flexion	wrist_hand_r1	wrist_hand_r3
      0.00000000	     -2.11955902	      0.89774516	     -0.89774516	      2.11955902	     -0.42916759	      3.46838147	      1.55901360	     -1.55901360	     -3.46838147	      0.42916759	     87.39211100	      8.75848871	    -87.39211100	     -2.86131723	     74.98646573	      0.00000000	      0.00000000	      0.00000000	      0.00000000	      0.00000000
      0.02040816	     -2.15023749	      0.91073912	     -0.91073912	      2.15023749	     -0.43537935	      3.51858279	      1.58157875	     -1.58157875	     -3.51858279	      0.43537935	     91.02369280	      8.88525898	    -91.02369280	     -3.51230983	     74.96299612	      0.00000000	      0.00000000	      0.00000000	      0.00000000	      0.00000000
      0.04081633	     -2.15796067	      0.91401029	     -0.91401029	      2.15796067	     -0.43694314	      3.53122076	      1.58725943	     -1.58725943	     -3.53122076	      0.43694314	     91.56902728	      8.91717287	    -91.56902728	     -3.61250765	     74.95176553	      0.00000000	      0.00000000	      0.00000000	      0.00000000	      0.00000000
      0.06122449	     -2.17854899	      0.92273053	     -0.92273053	      2.17854899	     -0.44111185	      3.56491084	      1.60240289	     -1.60240289	     -3.56491084	      0.44111185	     92.46611840	      9.00224836	    -92.46611840	     -3.78484393	     74.89460904	      0.00000000	      0.00000000	      0.00000000	      0.00000000	      0.00000000
      0.08163265	     -2.21166763	      0.93675802	     -0.93675802	      2.21166763	     -0.44781771	      3.61910518	      1.62676287	     -1.62676287	     -3.61910518	      0.44781771	     93.24097394	      9.13910196	    -93.24097394	     -3.93413955	     74.76984505	      0.00000000	      0.00000000	      0.00000000	      0.00000000	      0.00000000
      0.10204082	     -2.26369553	      0.95879459	     -0.95879459	      2.26369553	     -0.45835230	      3.70424204	      1.66503130	     -1.66503130	     -3.70424204	      0.45835230	     94.02091730	      9.35409280	    -94.02091730	     -4.09820446	     74.55490731	      0.00000000	      0.00000000	      0.00000000	      0.00000000	      0.00000000
      0.12244898	     -2.34181200	      0.99188104	     -0.99188104	      2.34181200	     -0.47416929	      3.83206944	      1.72248884	     -1.72248884	     -3.83206944	      0.47416929	     94.75926372	      9.67688740	    -94.75926372	     -4.27046831	     74.21170211	      0.00000000	      0.00000000	      0.00000000	      0.00000000	      0.00000000
      0.14285714	     -2.44967288	      1.03756581	     -1.03756581	      2.44967288	     -0.49600893	      4.00856968	      1.80182448	     -1.80182448	     -4.00856968	      0.49600893	     95.46748096	     10.12259251	    -95.46748096	     -4.45331743	     73.71670596	      0.00000000	      0.00000000	      0.00000000	      0.00000000	      0.00000000
      0.16326531	     -2.59253909	      1.09807720	     -1.09807720	      2.59253909	     -0.52493643	      4.24235157	      1.90690783	     -1.90690783	     -4.24235157	      0.52493643	     96.12158905	     10.71294742	    -96.12158905	     -4.66649386	     73.05166913	      0.00000000	      0.00000000	      0.00000000	      0.00000000	      0.00000000
      0.18367347	     -2.77202909	      1.17410069	     -1.17410069	      2.77202909	     -0.56127950	      4.53606352	      2.03892933	     -2.03892933	     -4.53606352	      0.56127950	     96.69760204	     11.45464000	    -96.69760204	     -4.90458392	     72.20114035	      0.00000000	      0.00000000	      0.00000000	      0.00000000	      0.00000000
      0.20408163	     -2.99059375	      1.26667436	     -1.26667436	      2.99059375	     -0.60553440	      4.89371602	      2.19969167	     -2.19969167	     -4.89371602	      0.60553440	     97.18637301	     12.35779770	    -97.18637301	     -5.17175861	     71.14612035	      0.00000000	      0.00000000	      0.00000000	      0.00000000	      0.00000000
      0.22448980	     -3.25010740	      1.37659210	     -1.37659210	      3.25010740	     -0.65808064	      5.31837622	      2.39057351	     -2.39057351	     -5.31837622	      0.65808064	     97.58823853	     13.43016576	    -97.58823853	     -5.47421004	     69.86951219	      0.00000000	      0.00000000	      0.00000000	      0.00000000	      0.00000000
      0.24489796	     -3.55219392	      1.50454169	     -1.50454169	      3.55219392	     -0.71924701	      5.81270134	      2.61276925	     -2.61276925	     -5.81270134	      0.71924701	     97.88409607	     14.67845436	    -97.88409607	     -5.81178401	     68.35411876	      0.00000000	      0.00000000	      0.00000000	      0.00000000	      0.00000000
      0.26530612	     -3.88532886	      1.64564193	     -1.64564193	      3.88532886	     -0.78670006	      6.35783316	      2.85780225	     -2.85780225	     -6.35783316	      0.78670006	     97.64769714	     16.05504194	    -97.64769714	     -6.02449478	     66.58355610	      0.00000000	      0.00000000	      0.00000000	      0.00000000	      0.00000000
      0.28571429	     -4.26019029	      1.80441554	     -1.80441554	      4.26019029	     -0.86260188	      6.97124493	      3.13352662	     -3.13352662	     -6.97124493	      0.86260188	     97.37338817	     17.60405266	    -97.37338817	     -6.26086882	     64.54581898	      0.00000000	      0.00000000	      0.00000000	      0.00000000	      0.00000000
      0.30612245	     -4.68000037	      1.98222727	     -1.98222727	      4.68000037	     -0.94760488	      7.65820929	      3.44231237	     -3.44231237	     -7.65820929	      0.94760488	     97.05350625	     19.33880118	    -97.05350625	     -6.52321083	     62.20929511	      0.00000000	      0.00000000	      0.00000000	      0.00000000	      0.00000000
